<svg width="767" height="118" viewBox="0 0 767 118" fill="none" xmlns="http://www.w3.org/2000/svg">
    <g clip-path="url(#clip0)">
        <path fill-rule="evenodd" clip-rule="evenodd" d="M706.99 28.7953C711.759 28.3928 720.085 27.69 727 27.69C747.25 27.69 762.13 37.21 762.13 57.28C762.13 74.93 748.63 86.52 730.98 86.52C728.139 86.5217 725.303 86.291 722.5 85.83V115.24H703.29V29.07C703.737 29.07 705.077 28.9569 706.99 28.7953ZM722.5 69.43C724.498 70.14 726.61 70.4789 728.73 70.43C737.04 70.43 742.92 65.94 742.92 57.63C742.92 48.98 737.21 44.83 728.73 44.83C726.83 44.83 723.5 44.83 722.5 45V69.43ZM681.85 85H663.33V97.94H687.2V115.24H644.46V28.72H685.83V46H663.33V68.35H681.85V85ZM593.42 28.72V71.12L597.57 71.11L610.37 28.72H630.13L622 55.89C620.07 62.47 617 72 614.74 78.56C616.825 81.4764 619.476 85.0245 622.088 88.5196C623.81 90.8249 625.516 93.1073 627.03 95.17V115.24H619.03L596.88 87.24H593.42V115.24H574.56V28.72H593.42ZM243.83 71.98C243.83 85.83 255.08 92.23 262 92.23V51.74C255.06 51.74 243.83 58.13 243.83 71.98ZM171.66 13.32L194.84 0H201.77V20.59H171.66V13.32ZM192.59 115.25V90.85L189.52 90.84L169.1 115.24H158.89V28.72H177.89V41.88C177.89 50.8493 177.37 66.0561 177.01 76.595C176.967 77.8413 176.927 79.0223 176.89 80.12H180L192.59 63.72V28.72H211.59V115.25H192.59ZM0 99.84C10 96.21 12.29 79.08 12.29 61.78V28.72H62.09V115.29H43.09V44H30.63V65.06C30.63 95.52 23.36 115.94 0 118.36V99.84ZM298.67 72.03C298.67 58.18 287.42 51.78 280.5 51.78V92.23C287.42 92.23 298.67 85.88 298.67 72.03ZM317.88 72.03C317.88 92.79 301.26 107.33 280.5 107.33V117.66H262V107.28C241.23 107.28 224.62 92.74 224.62 71.98C224.62 51.22 241.24 36.68 262 36.68V24.92H280.5V36.73C301.27 36.73 317.88 51.27 317.88 72.03ZM443 28.72C446.85 35.65 452 45 455.5 51.96L459.14 51.91C462.273 45.6435 466.825 37.3843 470.486 30.7414C470.868 30.0487 471.24 29.3735 471.6 28.72H479.9V52.43L469 70.43L481.43 91.37V115.25H473.12L459.12 88.95H455.49L441.49 115.25H433.18V91.37L445.59 70.43L434.69 52.43V28.72H443ZM511.4 28.72H541L564.19 115.23H544.81L541 100H511.4L507.59 115.24H488.21L511.4 28.72ZM515.55 84.1H536.83L527.84 47.59H524.38L515.55 84.1ZM95.69 28.72H125.28L148.47 115.23H129.09L125.28 100H95.69L91.88 115.24H72.5L95.69 28.72ZM99.84 84.1H121.13L112.13 47.59H108.67L99.84 84.1ZM424.256 49.5L414 65L411 116H336L333 65L323 49.5L374 20L424.256 49.5ZM398 98H350V54.6961L374 41L398 55.1258V98ZM364 86V66H384V86H364Z" fill="#231F20"/>
    </g>
    <defs>
        <clipPath id="clip0">
            <rect width="767" height="118" fill="white"/>
        </clipPath>
    </defs>
</svg>
